<?xml version="1.0" encoding="iso-8859-1"?>
<!-- Generator: Adobe Illustrator 19.0.0, SVG Export Plug-In . SVG Version: 6.00 Build 0)  -->
<svg version="1.1" id="Capa_1" xmlns="http://www.w3.org/2000/svg" xmlns:xlink="http://www.w3.org/1999/xlink" x="0px" y="0px"
	 viewBox="0 0 480.002 480.002" style="enable-background:new 0 0 480.002 480.002;" xml:space="preserve">
<linearGradient id="SVGID_1_" gradientUnits="userSpaceOnUse" x1="-58.9817" y1="595.8769" x2="27.6653" y2="595.8769" gradientTransform="matrix(8 0 0 -8 454.9977 4941.0166)">
	<stop  offset="0" style="stop-color:#E93E3A"/>
	<stop  offset="0.354" style="stop-color:#ED683C"/>
	<stop  offset="0.718" style="stop-color:#F3903F"/>
	<stop  offset="1" style="stop-color:#FDC70C"/>
</linearGradient>
<path style="fill:url(#SVGID_1_);" d="M124,176.002c-11.046,0-20-8.954-20-20H88c0,19.882,16.118,36,36,36s36-16.118,36-36h-16
	C144,167.048,135.046,176.002,124,176.002z"/>
<g>
	
		<linearGradient id="SVGID_2_" gradientUnits="userSpaceOnUse" x1="-58.9817" y1="587.6269" x2="27.6653" y2="587.6269" gradientTransform="matrix(8 0 0 -8 454.9977 4941.0166)">
		<stop  offset="0" style="stop-color:#E93E3A"/>
		<stop  offset="0.354" style="stop-color:#ED683C"/>
		<stop  offset="0.718" style="stop-color:#F3903F"/>
		<stop  offset="1" style="stop-color:#FDC70C"/>
	</linearGradient>
	<path style="fill:url(#SVGID_2_);" d="M448,304.002c-0.044,39.746-32.254,71.956-72,72c-4.418,0-8,3.582-8,8v80H192v-72h40v-16H120
		c-22.08-0.026-39.974-17.92-40-40v-64c0-4.418-3.582-8-8-8H35.08l52.312-157.984c21.58-53.955,73.627-89.519,131.736-90.016H320
		v-16H219.128c-64.78,0.533-122.785,40.242-146.72,100.44l-56,169.048c-1.387,4.195,0.889,8.72,5.083,10.107
		c0.809,0.268,1.656,0.404,2.509,0.405h40v56c0.035,30.913,25.087,55.965,56,56h56v80c0,4.418,3.582,8,8,8h192c4.418,0,8-3.582,8-8
		v-80.36c45.288-4.191,79.946-42.159,80-87.64v-120h-16V304.002z"/>
	
		<linearGradient id="SVGID_3_" gradientUnits="userSpaceOnUse" x1="-58.9817" y1="605.627" x2="27.6653" y2="605.627" gradientTransform="matrix(8 0 0 -8 454.9977 4941.0166)">
		<stop  offset="0" style="stop-color:#E93E3A"/>
		<stop  offset="0.354" style="stop-color:#ED683C"/>
		<stop  offset="0.718" style="stop-color:#F3903F"/>
		<stop  offset="1" style="stop-color:#FDC70C"/>
	</linearGradient>
	<path style="fill:url(#SVGID_3_);" d="M461.032,1.786c-1.872-1.532-4.342-2.122-6.704-1.6l-112,24
		c-3.688,0.788-6.325,4.045-6.328,7.816V132.45c-4.843-2.879-10.366-4.415-16-4.448c-17.673,0-32,14.327-32,32s14.327,32,32,32
		s32-14.327,32-32V78.466l96-20.568v50.552c-4.843-2.879-10.366-4.415-16-4.448c-17.673,0-32,14.327-32,32s14.327,32,32,32
		s32-14.327,32-32v-128C463.999,5.588,462.909,3.304,461.032,1.786z M320,176.002c-8.837,0-16-7.163-16-16s7.163-16,16-16
		s16,7.163,16,16S328.837,176.002,320,176.002z M352,62.106V38.474l96-20.576v23.64L352,62.106z M432,152.002
		c-8.837,0-16-7.163-16-16s7.163-16,16-16s16,7.163,16,16S440.837,152.002,432,152.002z"/>
</g>
<g>
</g>
<g>
</g>
<g>
</g>
<g>
</g>
<g>
</g>
<g>
</g>
<g>
</g>
<g>
</g>
<g>
</g>
<g>
</g>
<g>
</g>
<g>
</g>
<g>
</g>
<g>
</g>
<g>
</g>
</svg>
